<svg height='300px' width='300px'  fill="#999999" xmlns="http://www.w3.org/2000/svg" data-name="Layer 1" viewBox="0 0 32 32" x="0px" y="0px"><title>Artboard 16</title><path d="M24.05,21.86H16.62l-4.05-7.69L8.52,21.86H7.77V8.92H24.05Zm-7.18-.42h6.76V9.34H8.19v12.1h.08l4.3-8.17Z"></path><path d="M20.45,21.86H16.62l-2.48-4.71,1.77-3Zm-3.58-.42h2.85L15.91,15l-1.29,2.2Z"></path><path d="M17.09,21.86h-9l4.52-8.59Zm-8.35-.42H16.4l-3.83-7.27Z"></path><path d="M20.92,13.52a1.47,1.47,0,1,1,1.46-1.47A1.46,1.46,0,0,1,20.92,13.52Zm0-2.51a1,1,0,1,0,1,1A1,1,0,0,0,20.92,11Z"></path></svg>