<svg width="320" height="447" viewBox="0 0 320 447" fill="none" xmlns="http://www.w3.org/2000/svg">
<rect width="320" height="447" fill="#339CFF"/>
<rect x="25.5" y="25.4464" width="269" height="396.107" stroke="white" stroke-width="3"/>
<rect x="61" y="60.8661" width="198" height="325.268" stroke="white" stroke-width="2"/>
<path d="M32 31.9286H46.6667V46.5625H32V31.9286Z" fill="white"/>
<path d="M38.6667 38.5804H53.3333V53.2143H38.6667V38.5804Z" fill="white"/>
<path d="M32 122.393H46.6667V137.027H32V122.393Z" fill="white"/>
<path d="M38.6667 129.045H53.3333V143.679H38.6667V129.045Z" fill="white"/>
<path d="M32 212.857H46.6667V227.491H32V212.857Z" fill="white"/>
<path d="M38.6667 219.509H53.3333V234.143H38.6667V219.509Z" fill="white"/>
<path d="M32 303.321H46.6667V317.955H32V303.321Z" fill="white"/>
<path d="M38.6667 309.973H53.3333V324.607H38.6667V309.973Z" fill="white"/>
<path d="M32 393.786H46.6667V408.42H32V393.786Z" fill="white"/>
<path d="M38.6667 400.437H53.3333V415.071H38.6667V400.437Z" fill="white"/>
<path fill-rule="evenodd" clip-rule="evenodd" d="M32 54.5446H46.6667V61.1964H53.3333V75.8304H38.6667V69.1786H32V54.5446ZM33.3333 55.875H45.3333V67.8482H33.3333V55.875Z" fill="white"/>
<path fill-rule="evenodd" clip-rule="evenodd" d="M32 145.009H46.6667V151.661H53.3333V166.295H38.6667V159.643H32V145.009ZM33.3333 146.339H45.3333V158.312H33.3333V146.339Z" fill="white"/>
<path fill-rule="evenodd" clip-rule="evenodd" d="M32 325.938H46.6667V332.589H53.3333V347.223H38.6667V340.571H32V325.938ZM33.3333 327.268H45.3333V339.241H33.3333V327.268Z" fill="white"/>
<path fill-rule="evenodd" clip-rule="evenodd" d="M32 235.473H46.6667V242.125H53.3333V256.759H38.6667V250.107H32V235.473ZM33.3333 236.804H45.3333V248.777H33.3333V236.804Z" fill="white"/>
<path fill-rule="evenodd" clip-rule="evenodd" d="M38.6667 114.411H32V99.7768H46.6667V106.429H53.3333V121.063H38.6667V114.411ZM45.3333 101.107H33.3333V113.08H38.6667V106.429H45.3333V101.107ZM46.6667 107.759V114.411H40V119.732H52V107.759H46.6667Z" fill="white"/>
<path fill-rule="evenodd" clip-rule="evenodd" d="M38.6667 204.875H32V190.241H46.6667V196.893H53.3333V211.527H38.6667V204.875ZM45.3333 191.571H33.3333V203.545H38.6667V196.893H45.3333V191.571ZM46.6667 198.223V204.875H40V210.196H52V198.223H46.6667Z" fill="white"/>
<path fill-rule="evenodd" clip-rule="evenodd" d="M38.6667 385.804H32V371.17H46.6667V377.821H53.3333V392.455H38.6667V385.804ZM45.3333 372.5H33.3333V384.473H38.6667V377.821H45.3333V372.5ZM46.6667 379.152V385.804H40V391.125H52V379.152H46.6667Z" fill="white"/>
<path fill-rule="evenodd" clip-rule="evenodd" d="M38.6667 295.339H32V280.705H46.6667V287.357H53.3333V301.991H38.6667V295.339ZM45.3333 282.036H33.3333V294.009H38.6667V287.357H45.3333V282.036ZM46.6667 288.687V295.339H40V300.661H52V288.687H46.6667Z" fill="white"/>
<path fill-rule="evenodd" clip-rule="evenodd" d="M46.6667 77.1607H32V91.7946H38.6667V98.4464H53.3333V83.8125H46.6667V77.1607ZM46.6667 83.8125H38.6667V91.7946H46.6667V83.8125Z" fill="white"/>
<path fill-rule="evenodd" clip-rule="evenodd" d="M46.6667 167.625H32V182.259H38.6667V188.911H53.3333V174.277H46.6667V167.625ZM46.6667 174.277H38.6667V182.259H46.6667V174.277Z" fill="white"/>
<path fill-rule="evenodd" clip-rule="evenodd" d="M46.6667 348.554H32V363.187H38.6667V369.839H53.3333V355.205H46.6667V348.554ZM46.6667 355.205H38.6667V363.187H46.6667V355.205Z" fill="white"/>
<path fill-rule="evenodd" clip-rule="evenodd" d="M46.6667 258.089H32V272.723H38.6667V279.375H53.3333V264.741H46.6667V258.089ZM46.6667 264.741H38.6667V272.723H46.6667V264.741Z" fill="white"/>
<path d="M266.667 31.9286H281.333V46.5625H266.667V31.9286Z" fill="white"/>
<path d="M273.333 38.5804H288V53.2143H273.333V38.5804Z" fill="white"/>
<path d="M266.667 122.393H281.333V137.027H266.667V122.393Z" fill="white"/>
<path d="M273.333 129.045H288V143.679H273.333V129.045Z" fill="white"/>
<path d="M266.667 212.857H281.333V227.491H266.667V212.857Z" fill="white"/>
<path d="M273.333 219.509H288V234.143H273.333V219.509Z" fill="white"/>
<path d="M266.667 303.321H281.333V317.955H266.667V303.321Z" fill="white"/>
<path d="M273.333 309.973H288V324.607H273.333V309.973Z" fill="white"/>
<path d="M266.667 393.786H281.333V408.42H266.667V393.786Z" fill="white"/>
<path d="M273.333 400.437H288V415.071H273.333V400.437Z" fill="white"/>
<path fill-rule="evenodd" clip-rule="evenodd" d="M266.667 54.5446H281.333V61.1964H288V75.8304H273.333V69.1786H266.667V54.5446ZM268 55.875H280V67.8482H268V55.875Z" fill="white"/>
<path fill-rule="evenodd" clip-rule="evenodd" d="M266.667 145.009H281.333V151.661H288V166.295H273.333V159.643H266.667V145.009ZM268 146.339H280V158.312H268V146.339Z" fill="white"/>
<path fill-rule="evenodd" clip-rule="evenodd" d="M266.667 325.938H281.333V332.589H288V347.223H273.333V340.571H266.667V325.938ZM268 327.268H280V339.241H268V327.268Z" fill="white"/>
<path fill-rule="evenodd" clip-rule="evenodd" d="M266.667 235.473H281.333V242.125H288V256.759H273.333V250.107H266.667V235.473ZM268 236.804H280V248.777H268V236.804Z" fill="white"/>
<path fill-rule="evenodd" clip-rule="evenodd" d="M273.333 114.411H266.667V99.7768H281.333V106.429H288V121.063H273.333V114.411ZM280 101.107H268V113.08H273.333V106.429H280V101.107ZM281.333 107.759V114.411H274.667V119.732H286.667V107.759H281.333Z" fill="white"/>
<path fill-rule="evenodd" clip-rule="evenodd" d="M273.333 204.875H266.667V190.241H281.333V196.893H288V211.527H273.333V204.875ZM280 191.571H268V203.545H273.333V196.893H280V191.571ZM281.333 198.223V204.875H274.667V210.196H286.667V198.223H281.333Z" fill="white"/>
<path fill-rule="evenodd" clip-rule="evenodd" d="M273.333 385.804H266.667V371.17H281.333V377.821H288V392.455H273.333V385.804ZM280 372.5H268V384.473H273.333V377.821H280V372.5ZM281.333 379.152V385.804H274.667V391.125H286.667V379.152H281.333Z" fill="white"/>
<path fill-rule="evenodd" clip-rule="evenodd" d="M273.333 295.339H266.667V280.705H281.333V287.357H288V301.991H273.333V295.339ZM280 282.036H268V294.009H273.333V287.357H280V282.036ZM281.333 288.687V295.339H274.667V300.661H286.667V288.687H281.333Z" fill="white"/>
<path fill-rule="evenodd" clip-rule="evenodd" d="M281.333 77.1607H266.667V91.7946H273.333V98.4464H288V83.8125H281.333V77.1607ZM281.333 83.8125H273.333V91.7946H281.333V83.8125Z" fill="white"/>
<path fill-rule="evenodd" clip-rule="evenodd" d="M281.333 167.625H266.667V182.259H273.333V188.911H288V174.277H281.333V167.625ZM281.333 174.277H273.333V182.259H281.333V174.277Z" fill="white"/>
<path fill-rule="evenodd" clip-rule="evenodd" d="M281.333 348.554H266.667V363.187H273.333V369.839H288V355.205H281.333V348.554ZM281.333 355.205H273.333V363.187H281.333V355.205Z" fill="white"/>
<path fill-rule="evenodd" clip-rule="evenodd" d="M281.333 258.089H266.667V272.723H273.333V279.375H288V264.741H281.333V258.089ZM281.333 264.741H273.333V272.723H281.333V264.741Z" fill="white"/>
<path fill-rule="evenodd" clip-rule="evenodd" d="M56 31.9286H70.6667V38.5804H77.3333V53.2143H62.6667V46.5625H56V31.9286ZM57.3333 33.2589H69.3333V45.2321H57.3333V33.2589Z" fill="white"/>
<path fill-rule="evenodd" clip-rule="evenodd" d="M172 31.9286H186.667V38.5804H193.333V53.2143H178.667V46.5625H172V31.9286ZM173.333 33.2589H185.333V45.2321H173.333V33.2589Z" fill="white"/>
<path fill-rule="evenodd" clip-rule="evenodd" d="M242.667 31.9286H257.333V38.5804H264V53.2143H249.333V46.5625H242.667V31.9286ZM244 33.2589H256V45.2321H244V33.2589Z" fill="white"/>
<path fill-rule="evenodd" clip-rule="evenodd" d="M133.333 46.5625H126.667V31.9286H141.333V38.5804H148V53.2143H133.333V46.5625ZM140 33.2589H128V45.2321H133.333V38.5804H140V33.2589ZM141.333 39.9107V46.5625H134.667V51.8839H146.667V39.9107H141.333Z" fill="white"/>
<path fill-rule="evenodd" clip-rule="evenodd" d="M225.333 46.5625H218.667V31.9286H233.333V38.5804H240V53.2143H225.333V46.5625ZM232 33.2589H220V45.2321H225.333V38.5804H232V33.2589ZM233.333 39.9107V46.5625H226.667V51.8839H238.667V39.9107H233.333Z" fill="white"/>
<path fill-rule="evenodd" clip-rule="evenodd" d="M209.333 31.9286H194.667V46.5625H201.333V53.2143H216V38.5804H209.333V31.9286ZM209.333 38.5804H201.333V46.5625H209.333V38.5804Z" fill="white"/>
<path fill-rule="evenodd" clip-rule="evenodd" d="M94.6667 31.9286H80V46.5625H86.6667V53.2143H101.333V38.5804H94.6667V31.9286ZM94.6667 38.5804H86.6667V46.5625H94.6667V38.5804Z" fill="white"/>
<path fill-rule="evenodd" clip-rule="evenodd" d="M118.667 31.9286H104V46.5625H110.667V53.2143H125.333V38.5804H118.667V31.9286ZM118.667 38.5804H110.667V46.5625H118.667V38.5804Z" fill="white"/>
<path d="M149.333 31.9286H164V46.5625H149.333V31.9286Z" fill="white"/>
<path d="M156 38.5804H170.667V53.2143H156V38.5804Z" fill="white"/>
<path fill-rule="evenodd" clip-rule="evenodd" d="M56 393.786H70.6667V400.437H77.3333V415.071H62.6667V408.42H56V393.786ZM57.3333 395.116H69.3333V407.089H57.3333V395.116Z" fill="white"/>
<path fill-rule="evenodd" clip-rule="evenodd" d="M172 393.786H186.667V400.437H193.333V415.071H178.667V408.42H172V393.786ZM173.333 395.116H185.333V407.089H173.333V395.116Z" fill="white"/>
<path fill-rule="evenodd" clip-rule="evenodd" d="M242.667 393.786H257.333V400.437H264V415.071H249.333V408.42H242.667V393.786ZM244 395.116H256V407.089H244V395.116Z" fill="white"/>
<path fill-rule="evenodd" clip-rule="evenodd" d="M133.333 408.42H126.667V393.786H141.333V400.437H148V415.071H133.333V408.42ZM140 395.116H128V407.089H133.333V400.437H140V395.116ZM141.333 401.768V408.42H134.667V413.741H146.667V401.768H141.333Z" fill="white"/>
<path fill-rule="evenodd" clip-rule="evenodd" d="M225.333 408.42H218.667V393.786H233.333V400.437H240V415.071H225.333V408.42ZM232 395.116H220V407.089H225.333V400.437H232V395.116ZM233.333 401.768V408.42H226.667V413.741H238.667V401.768H233.333Z" fill="white"/>
<path fill-rule="evenodd" clip-rule="evenodd" d="M209.333 393.786H194.667V408.42H201.333V415.071H216V400.437H209.333V393.786ZM209.333 400.437H201.333V408.42H209.333V400.437Z" fill="white"/>
<path fill-rule="evenodd" clip-rule="evenodd" d="M94.6667 393.786H80V408.42H86.6667V415.071H101.333V400.437H94.6667V393.786ZM94.6667 400.437H86.6667V408.42H94.6667V400.437Z" fill="white"/>
<path fill-rule="evenodd" clip-rule="evenodd" d="M118.667 393.786H104V408.42H110.667V415.071H125.333V400.437H118.667V393.786ZM118.667 400.437H110.667V408.42H118.667V400.437Z" fill="white"/>
<path d="M149.333 393.786H164V408.42H149.333V393.786Z" fill="white"/>
<path d="M156 400.437H170.667V415.071H156V400.437Z" fill="white"/>
<path d="M204.588 204.434C204.208 203.906 203.599 203.593 202.95 203.592H167.006L175.817 200.397C176.825 200.031 177.646 199.278 178.101 198.305C178.556 197.331 178.607 196.216 178.243 195.204L175.504 187.567L201.162 178.236C202.421 177.778 203.447 176.838 204.016 175.62C204.584 174.403 204.648 173.009 204.193 171.745L202.172 166.025C201.716 164.761 200.779 163.73 199.566 163.16C198.353 162.589 196.964 162.525 195.705 162.982L170.006 172.313L167.258 164.676C166.893 163.664 166.143 162.84 165.173 162.384C164.203 161.927 163.091 161.876 162.084 162.241L143.076 169.108C142.069 169.474 141.247 170.227 140.793 171.201C140.338 172.174 140.287 173.29 140.651 174.301L151.181 203.592H146.36C145.824 203.592 145.31 203.806 144.931 204.186C144.552 204.567 144.339 205.083 144.339 205.621V207.649H114.023C113.338 207.648 112.699 207.996 112.326 208.572C111.954 209.147 111.896 209.873 112.174 210.499L118.237 224.334C119.774 227.842 122.298 230.823 125.498 232.913C128.699 235.003 132.437 236.11 136.255 236.099H137.65C139.916 236.099 142.029 237.247 143.268 239.151C144.507 241.055 144.705 243.458 143.794 245.541C142.883 247.624 140.986 249.104 138.751 249.477L133.921 250.288C133.447 250.363 133.016 250.604 132.703 250.968C132.391 251.332 132.217 251.795 132.213 252.276V262.419C132.213 262.957 132.426 263.473 132.805 263.853C133.184 264.233 133.698 264.447 134.234 264.447H154.445C154.981 264.447 155.495 264.233 155.874 263.853C156.253 263.473 156.466 262.957 156.466 262.419C156.466 260.245 157.622 258.236 159.497 257.149C161.373 256.062 163.685 256.062 165.561 257.149C167.436 258.236 168.592 260.245 168.592 262.419C168.592 262.957 168.805 263.473 169.184 263.853C169.563 264.233 170.077 264.447 170.613 264.447H190.824C191.36 264.447 191.874 264.233 192.253 263.853C192.632 263.473 192.845 262.957 192.845 262.419V252.276C192.852 251.792 192.685 251.32 192.376 250.949C192.066 250.576 191.634 250.328 191.157 250.248L187.024 249.558C185.268 249.268 183.672 248.364 182.518 247.005C181.363 245.646 180.726 243.92 180.719 242.134C180.719 240.52 181.357 238.972 182.495 237.831C183.631 236.69 185.174 236.049 186.782 236.049C187.156 236.049 187.524 235.945 187.844 235.748C188.163 235.551 188.422 235.269 188.591 234.933L196.19 219.72C197.542 219.489 198.806 218.895 199.85 218.003C200.895 217.11 201.679 215.951 202.122 214.649L204.891 206.322C205.109 205.681 204.996 204.974 204.587 204.435L204.588 204.434ZM197.039 166.826C197.292 166.732 197.572 166.743 197.817 166.857C198.062 166.972 198.252 167.18 198.342 167.435L200.364 173.155C200.465 173.402 200.465 173.679 200.364 173.926C200.249 174.172 200.042 174.362 199.788 174.453L174.13 183.754L171.382 176.127L197.039 166.826ZM163.459 166.066L174.444 196.595L155.456 203.471L144.451 172.942L163.459 166.066ZM198.272 213.309C198.031 214.024 197.573 214.646 196.963 215.086C196.352 215.526 195.619 215.764 194.867 215.764C194.492 215.763 194.124 215.867 193.804 216.064C193.485 216.261 193.227 216.544 193.058 216.88L185.479 232.093C183.048 232.41 180.815 233.604 179.195 235.451C177.576 237.298 176.681 239.673 176.677 242.134C176.67 244.888 177.64 247.556 179.414 249.658C181.188 251.76 183.65 253.159 186.358 253.605L188.804 254.01V260.39H172.432C171.809 257.309 169.797 254.693 166.987 253.306C164.176 251.92 160.883 251.92 158.072 253.306C155.261 254.693 153.249 257.309 152.626 260.39H136.255V253.99L139.398 253.473C143.086 252.981 146.26 250.611 147.787 247.206C149.315 243.801 148.98 239.845 146.902 236.747C144.823 233.649 141.297 231.851 137.579 231.991H136.255C133.229 231.992 130.268 231.109 127.732 229.451C125.197 227.792 123.197 225.429 121.976 222.65L117.126 211.706H146.36C146.896 211.706 147.411 211.492 147.79 211.112C148.169 210.731 148.382 210.215 148.382 209.678V207.649H200.151L198.272 213.309Z" fill="white"/>
<path d="M121.879 199.535L139.059 201.564H139.291C140.013 201.606 140.702 201.258 141.099 200.651C141.496 200.044 141.541 199.27 141.216 198.622C140.89 197.974 140.245 197.549 139.523 197.507L122.344 195.478C121.622 195.395 120.91 195.705 120.477 196.291C120.044 196.876 119.956 197.65 120.245 198.319C120.534 198.989 121.157 199.452 121.879 199.535Z" fill="white"/>
<path d="M135.977 191.969C136.341 192.271 136.798 192.436 137.27 192.435C137.829 192.437 138.363 192.206 138.745 191.798C139.128 191.39 139.326 190.841 139.291 190.282C139.257 189.723 138.994 189.203 138.564 188.845L132.501 183.774C132.088 183.429 131.556 183.264 131.021 183.313C130.487 183.363 129.994 183.623 129.651 184.038C129.308 184.452 129.143 184.986 129.192 185.522C129.241 186.058 129.501 186.553 129.914 186.898L135.977 191.969Z" fill="white"/>
<path d="M190.434 194.464L185.381 195.478C184.659 195.549 184.029 196.001 183.729 196.663C183.429 197.326 183.504 198.1 183.926 198.692C184.348 199.284 185.053 199.605 185.775 199.535C185.906 199.55 186.038 199.55 186.169 199.535L191.222 198.521C191.944 198.38 192.536 197.862 192.775 197.164C193.014 196.466 192.864 195.692 192.381 195.135C191.898 194.578 191.156 194.323 190.434 194.464Z" fill="white"/>
</svg>
