<svg width="141" height="154" viewBox="0 0 141 154" fill="none" xmlns="http://www.w3.org/2000/svg">
<g clip-path="url(#clip0_5_71)">
<path d="M139.505 63.794C138.936 63.0026 138.023 62.533 137.05 62.5318H83.1563L96.3684 57.7416C97.8791 57.1922 99.1102 56.0637 99.7921 54.6038C100.475 53.1439 100.551 51.4717 100.005 49.9555L95.8988 38.5045L134.368 24.514C136.257 23.8277 137.796 22.4173 138.648 20.5917C139.5 18.7669 139.596 16.6772 138.914 14.7814L135.883 6.20459C135.2 4.30934 133.794 2.76462 131.975 1.90929C130.157 1.0539 128.075 0.957578 126.186 1.64254L87.6555 15.6331L83.5343 4.18209C82.987 2.66581 81.8626 1.43021 80.408 0.745847C78.9535 0.0608853 77.2874 -0.0157734 75.7767 0.532316L47.2774 10.8276C45.7667 11.3769 44.5356 12.5055 43.8537 13.9654C43.1713 15.4252 43.0949 17.0975 43.641 18.6136L59.4289 62.5318H52.2016C51.398 62.5318 50.6271 62.8524 50.0589 63.4227C49.4907 63.9929 49.1713 64.7666 49.1713 65.5732V68.6147H3.71683C2.68968 68.6128 1.73138 69.1342 1.17138 69.9985C0.613932 70.8609 0.528065 71.9483 0.944112 72.8878L10.035 93.6311C12.34 98.8903 16.124 103.36 20.9219 106.494C25.7205 109.627 31.3253 111.287 37.0501 111.271H39.1411C42.5387 111.271 45.7067 112.992 47.5646 115.847C49.4226 118.702 49.7193 122.305 48.3538 125.428C46.9876 128.55 44.1442 130.77 40.7926 131.33L33.5502 132.546C32.8407 132.658 32.1936 133.019 31.7251 133.565C31.2561 134.111 30.9953 134.806 30.9896 135.527V150.734C30.9896 151.54 31.3091 152.314 31.8773 152.884C32.4454 153.455 33.2163 153.775 34.02 153.775H64.3229C65.1266 153.775 65.8974 153.455 66.4656 152.884C67.0338 152.314 67.3533 151.54 67.3533 150.734C67.3533 147.474 69.0863 144.462 71.8987 142.832C74.7112 141.202 78.1772 141.202 80.9896 142.832C83.802 144.462 85.535 147.474 85.535 150.734C85.535 151.54 85.8545 152.314 86.4227 152.884C86.9909 153.455 87.7617 153.775 88.5654 153.775H118.868C119.672 153.775 120.443 153.455 121.011 152.884C121.579 152.314 121.899 151.54 121.899 150.734V135.527C121.909 134.8 121.659 134.093 121.195 133.536C120.731 132.978 120.082 132.605 119.368 132.485L113.171 131.451C110.539 131.017 108.145 129.66 106.414 127.622C104.683 125.585 103.728 122.997 103.717 120.32C103.717 117.9 104.675 115.579 106.38 113.868C108.084 112.157 110.397 111.195 112.808 111.195C113.37 111.197 113.921 111.041 114.401 110.746C114.879 110.45 115.267 110.026 115.52 109.523L126.914 86.7128C128.941 86.3662 130.837 85.4765 132.402 84.1383C133.968 82.8001 135.144 81.0627 135.808 79.1092L139.959 66.6241C140.287 65.6641 140.117 64.6035 139.505 63.7955V63.794ZM128.187 7.40676C128.566 7.26483 128.987 7.28194 129.354 7.45302C129.721 7.62473 130.005 7.93648 130.141 8.31918L133.172 16.896C133.323 17.266 133.323 17.6817 133.172 18.0517C133.001 18.4205 132.69 18.7056 132.308 18.8425L93.8386 32.7875L89.7174 21.3517L128.187 7.40676ZM77.8387 6.26624L94.3089 52.0401L65.8387 62.3504L49.3393 16.5766L77.8387 6.26624ZM130.036 77.1014C129.675 78.1735 128.988 79.105 128.072 79.7652C127.156 80.4255 126.057 80.7809 124.93 80.7816C124.368 80.7803 123.816 80.9362 123.337 81.2314C122.858 81.5273 122.471 81.9506 122.218 82.4543L110.854 105.264C107.209 105.74 103.861 107.529 101.433 110.299C99.0051 113.069 97.6635 116.63 97.6572 120.319C97.6459 124.449 99.1011 128.449 101.761 131.6C104.421 134.752 108.112 136.85 112.172 137.518L115.839 138.127V147.692H91.293C90.3586 143.073 87.3423 139.149 83.1277 137.071C78.913 134.992 73.9762 134.992 69.7615 137.071C65.5469 139.149 62.5305 143.073 61.5962 147.692H37.05V138.096L41.7621 137.321C47.2924 136.584 52.0505 133.03 54.341 127.925C56.6314 122.819 56.1294 116.887 53.0133 112.243C49.8972 107.598 44.6099 104.902 39.0348 105.112H37.05C32.5128 105.113 28.0728 103.789 24.2717 101.303C20.4705 98.8157 17.4719 95.2731 15.6411 91.1064L8.36839 74.6973H52.2018C53.0055 74.6973 53.7763 74.3767 54.3445 73.8064C54.9127 73.2362 55.2322 72.4625 55.2322 71.6558V68.6144H132.853L130.036 77.1014Z" fill="black" fill-opacity="0.1"/>
<path d="M15.4953 56.4493L41.2536 59.4907H41.6021C42.6848 59.5534 43.7183 59.0313 44.3135 58.1214C44.9087 57.2115 44.9751 56.052 44.4877 55.08C44.0004 54.108 43.0332 53.4706 41.9505 53.4078L16.1922 50.3664C15.1095 50.2416 14.0426 50.7054 13.3937 51.5842C12.7447 52.4624 12.6115 53.6219 13.0452 54.6256C13.4789 55.6294 14.4126 56.3246 15.4953 56.4493Z" fill="black" fill-opacity="0.1"/>
<path d="M36.6331 45.1043C37.1785 45.558 37.8641 45.8051 38.5725 45.8039C39.4096 45.8058 40.2101 45.4598 40.784 44.8477C41.3585 44.2363 41.6546 43.4138 41.6028 42.5748C41.5517 41.7365 41.1565 40.9565 40.5119 40.4205L31.421 32.817C30.8024 32.3006 30.0044 32.0522 29.2032 32.1263C28.4021 32.2005 27.6628 32.5914 27.1482 33.2124C26.6337 33.8333 26.3863 34.6342 26.4601 35.4384C26.534 36.2424 26.9235 36.9844 27.5422 37.5009L36.6331 45.1043Z" fill="black" fill-opacity="0.1"/>
<path d="M118.283 48.8449L110.707 50.3657C109.625 50.4715 108.681 51.1495 108.231 52.143C107.781 53.1372 107.894 54.2966 108.526 55.1844C109.159 56.0728 110.216 56.5543 111.298 56.4485C111.495 56.4707 111.693 56.4707 111.889 56.4485L119.465 54.9278C120.548 54.7162 121.435 53.9406 121.794 52.8932C122.152 51.8465 121.927 50.6868 121.203 49.8518C120.479 49.0167 119.366 48.6333 118.283 48.8449Z" fill="black" fill-opacity="0.1"/>
</g>
<defs>
<clipPath id="clip0_5_71">
<rect width="141" height="154" fill="white"/>
</clipPath>
</defs>
</svg>
